<?xml version="1.0" standalone="no"?>
<!DOCTYPE svg PUBLIC "-//W3C//DTD SVG 20010904//EN"
 "http://www.w3.org/TR/2001/REC-SVG-20010904/DTD/svg10.dtd">
<svg version="1.0" xmlns="http://www.w3.org/2000/svg"
 width="700.000000pt" height="700.000000pt" viewBox="0 0 700.000000 700.000000"
 preserveAspectRatio="xMidYMid meet">
<metadata>
Created by potrace 1.11, written by Peter Selinger 2001-2013
</metadata>
<g transform="translate(0.000000,700.000000) scale(0.100000,-0.100000)"
fill="#000000" stroke="none">
<path d="M6035 6970 c-65 -17 -89 -33 -182 -125 -53 -52 -99 -95 -103 -95 -3
0 -25 20 -49 44 -24 25 -57 50 -72 57 -85 35 -182 -59 -149 -145 5 -15 32 -50
58 -76 l49 -49 -80 -81 -80 -81 -36 33 c-20 18 -37 36 -39 41 -8 16 -62 37
-96 37 -55 0 -118 -66 -110 -117 1 -7 2 -20 3 -29 0 -8 26 -42 56 -73 l55 -58
-50 -44 c-126 -109 -183 -268 -156 -439 l7 -45 -283 -277 c-156 -152 -746
-740 -1313 -1307 -566 -567 -1035 -1031 -1041 -1031 -7 0 -43 15 -81 34 -63
31 -254 101 -307 112 -76 16 -127 25 -166 30 -25 3 -56 7 -70 10 -37 6 -269 6
-315 -1 -187 -27 -254 -41 -340 -70 -249 -83 -459 -211 -640 -390 -115 -113
-149 -154 -229 -277 -92 -141 -198 -386 -220 -508 -2 -14 -9 -47 -15 -75 -6
-27 -13 -63 -17 -80 -10 -51 -12 -370 -3 -421 6 -27 12 -67 15 -89 7 -49 51
-222 63 -250 5 -11 19 -47 32 -80 47 -123 176 -339 259 -435 115 -132 259
-256 397 -341 264 -163 396 -214 662 -258 51 -8 338 -6 391 3 22 3 71 12 175
32 61 11 239 76 328 119 386 186 676 508 830 920 19 52 54 181 61 225 3 19 8
44 10 56 20 99 28 350 14 444 -33 211 -77 366 -148 517 -33 70 -38 89 -28 101
7 8 602 604 1323 1324 l1309 1310 51 -7 c164 -24 296 22 424 145 l63 62 36
-34 c20 -18 43 -42 53 -53 13 -16 30 -20 74 -20 52 0 59 3 87 34 27 30 30 39
26 83 -5 44 -12 56 -58 103 l-52 53 81 81 81 81 45 -46 c62 -61 102 -78 152
-61 43 14 83 66 83 107 0 32 -38 91 -80 127 -17 14 -30 29 -30 34 0 5 44 54
99 109 123 125 140 165 117 285 -7 38 -62 100 -257 292 -527 521 -521 516
-605 526 -21 3 -52 2 -69 -3z"/>
</g>
</svg>
